# xmcd CD database file
#
# Track frame offsets:
#	150
#	15018
#	28382
#	43620
#	55761
#	76400
#	101071
#	118551
#	131849
#	149354
#	167085
#	187815
#	197562
#	220289
#	237918
#	254752
#	272107
#	285035
#	301813
#
# Disc length: 4202 seconds
#
# Revision: 1
# Processed by: cddbd v1.5.2PL0 Copyright (c) Steve Scherf et al.
# Submitted via: CDex 1.70beta2
#
DISCID=08106813
DTITLE=Tony Bennett - Duets II
DYEAR=2011
DGENRE=Jazz
TTITLE0=The Lady Is A Tramp (with Lady Gaga)
TTITLE1=One For My Baby (And One More For The Road with John Mayer)
TTITLE2=Body And Soul (with Amy Winehouse)
TTITLE3=Don't Get Around Much Anymore (with Michael Buble)
TTITLE4=Blue Velvet (with k.d.lang)
TTITLE5=How Do You Keep The Music Playing (with Aretha Franklin)
TTITLE6=The Girl I Love (with Sheryl Crow)
TTITLE7=On The Sunny Side Of The Street (with Willie Nelson)
TTITLE8=Who Can I Turn To (When Nobody Needs Me with Queen Latifah)
TTITLE9=Speak Low (with Norah Jones)
TTITLE10=This Is All I Ask (with Josh Groban)
TTITLE11=Watch What Happens (with Natalie Cole)
TTITLE12=Stranger In Paradise (with Andrea Bocelli)
TTITLE13=The Way You Look Tonight (with Faith Hill)
TTITLE14=Yesterday I Heard The Rain (withAlejandro Sanz)
TTITLE15=It Had To Be You (with Carrie Underwood)
TTITLE16=When Do The Bells Ring For Me (with Mariah Carey)
TTITLE17=When You Wish Upon A Star (with Jackie Evancho)
TTITLE18=They Can't Take That Away From Me (with Brad Paisley)
EXTD=YEAR: 2011
EXTT0=
EXTT1=
EXTT2=
EXTT3=
EXTT4=
EXTT5=
EXTT6=
EXTT7=
EXTT8=
EXTT9=
EXTT10=
EXTT11=
EXTT12=
EXTT13=
EXTT14=
EXTT15=
EXTT16=
EXTT17=
EXTT18=
PLAYORDER=
